<?xml version="1.0" encoding="UTF-8"?>
<svg width="16px" height="16px" viewBox="0 0 16 16" version="1.1" xmlns="http://www.w3.org/2000/svg" xmlns:xlink="http://www.w3.org/1999/xlink">
    <!-- Generator: Sketch 58 (84663) - https://sketch.com -->
    <title>ic_addpoint</title>
    <desc>Created with Sketch.</desc>
    <g id="ic_addpoint" stroke="none" stroke-width="1" fill="none" fill-rule="evenodd">
        <g transform="translate(8.000000, 8.000000) rotate(90.000000) translate(-8.000000, -8.000000) " id="编组">
            <g transform="translate(1.000000, 1.000000)">
                <g id="编组-4">
                    <circle id="椭圆形" stroke="#FFFFFF" fill="#4390FF" cx="7" cy="7" r="7"></circle>
                    <path d="M10.0434062,7.45639922 L7.45661719,7.45639922 L7.45661719,10.0436008 C7.45661719,10.2957227 7.25213745,10.5 7,10.5 C6.74788591,10.5 6.54340617,10.2957227 6.54340617,10.0436008 L6.54340617,7.45639922 L3.95660162,7.45639922 C3.70426955,7.45639922 3.5,7.25212188 3.5,7 C3.5,6.74797154 3.70429291,6.54360078 3.95660162,6.54360078 L6.5433906,6.54360078 L6.5433906,3.95639922 C6.5433906,3.70437075 6.74787034,3.5 7,3.5 C7.25212188,3.5 7.45660162,3.70437854 7.45660162,3.95639922 L7.45660162,6.54360857 L10.0433906,6.54360857 C10.2957227,6.54360857 10.5,6.74797154 10.5,7 C10.5,7.25211409 10.2957227,7.45637586 10.0433906,7.45637586 L10.0434062,7.45639922 Z" id="路径" fill="#FFFFFF" fill-rule="nonzero"></path>
                </g>
                <g id="加号(1)" transform="translate(3.500000, 3.500000)"></g>
            </g>
        </g>
    </g>
</svg>