<?xml version="1.0" encoding="UTF-8"?>
<svg xmlns="http://www.w3.org/2000/svg" xmlns:xlink="http://www.w3.org/1999/xlink" width="14px" height="14px" viewBox="0 0 14 14" version="1.1">
  <title>条件</title>
  <g id="工作流定义" stroke="none" stroke-width="1" fill="none" fill-rule="evenodd">
    <g id="1-审批流定义-复制功能" transform="translate(-777.000000, -370.000000)">
      <g id="编组-2" transform="translate(221.000000, 64.000000)">
        <g id="编组-8备份" transform="translate(540.000000, 291.000000)">
          <g id="条件" transform="translate(16.000000, 15.000000)">
            <rect id="矩形" x="0" y="0" width="14" height="14"></rect>
            <path d="M4.13080895,4.17265193 C4.44061962,4.17265193 4.71944923,4.06629834 4.9363167,3.86878453 C5.15318417,3.65607735 5.27710843,3.39779006 5.27710843,3.07872928 C5.27710843,2.75966851 5.1686747,2.50138122 4.95180723,2.3038674 C4.73493976,2.09116022 4.45611015,2 4.13080895,2 C3.80550775,2 3.54216867,2.09116022 3.3253012,2.3038674 C3.10843373,2.50138122 3,2.75966851 3,3.07872928 C3,3.38259669 3.10843373,3.65607735 3.3253012,3.86878453 C3.54216867,4.06629834 3.80550775,4.17265193 4.13080895,4.17265193 Z M4.95180723,13 L4.95180723,5.14502762 L3.30981067,5.14502762 L3.30981067,13 L4.95180723,13 Z M9.7848537,13 L9.7848537,6.46685083 L11.8915663,6.46685083 L11.8915663,5.14502762 L9.7848537,5.14502762 L9.7848537,4.33977901 C9.7848537,4.05110497 9.84681583,3.83839779 9.9707401,3.71685083 C10.0946644,3.5801105 10.2960413,3.51933702 10.5593804,3.51933702 L12,3.51933702 L12,2.1519337 L10.3270224,2.1519337 C9.61445783,2.1519337 9.08777969,2.33425414 8.71600688,2.72928177 C8.34423408,3.09392265 8.15834768,3.62569061 8.15834768,4.2941989 L8.15834768,5.14502762 L6.31497418,5.14502762 L6.31497418,6.46685083 L8.15834768,6.46685083 L8.15834768,13 L9.7848537,13 Z" id="形状结合" fill="#FF9372" fill-rule="nonzero"></path>
          </g>
        </g>
      </g>
    </g>
  </g>
</svg>
