<?xml version="1.0" encoding="UTF-8"?>
<svg width="14px" height="14px" viewBox="0 0 14 14" version="1.1" xmlns="http://www.w3.org/2000/svg" xmlns:xlink="http://www.w3.org/1999/xlink">
    <!-- Generator: Sketch 58 (84663) - https://sketch.com -->
    <title> ic_ex</title>
    <desc>Created with Sketch.</desc>
    <g id="-ic_ex" stroke="none" stroke-width="1" fill="none" fill-rule="evenodd">
        <g fill="#1FCCAB" fill-rule="nonzero" id="形状">
            <path d="M9.7990202,9.06047285 C9.62811363,8.22817174 8.8680657,7.62513555 7.99408007,7.62513555 L6.61988007,7.62513555 L6.61988007,7.28054344 C7.64809847,6.66083343 8.27058745,5.53396165 8.24974518,4.31955235 C8.22056601,2.5604652 6.78800768,1.07371697 5.05671021,1.00285327 C4.13548211,0.965337196 3.27261234,1.29881343 2.61260729,1.94214467 C1.95260224,2.58547591 1.58855734,3.45112465 1.58855734,4.37930017 C1.58855734,5.56869875 2.21104632,6.67472827 3.21842245,7.28193292 L3.21842245,7.62652503 L1.84422246,7.62652503 C0.970236821,7.62652503 0.211578382,8.22956123 0.0392823261,9.06186234 C-0.073265904,9.60515071 0.0587351066,10.1609444 0.40054825,10.5889056 C0.743750877,11.0182563 1.25091265,11.264195 1.79281154,11.264195 L8.04549099,11.264195 C8.58600039,11.264195 9.09455165,11.0182563 9.43775428,10.5902951 C9.77956742,10.1623339 9.91156843,9.60515071 9.7990202,9.06047285 L9.7990202,9.06047285 Z M8.58877936,9.89277396 C8.45399938,10.062291 8.25391363,10.159555 8.04271202,10.159555 L1.79003257,10.159555 C1.57883095,10.159555 1.37874521,10.062291 1.24396523,9.89277396 C1.10779577,9.72186739 1.05777433,9.5078868 1.10362732,9.28834828 C1.17032256,8.97015637 1.48712499,8.73116507 1.84283298,8.73116507 L3.3295812,8.73116507 C3.86731163,8.73116507 4.30638868,8.2851406 4.30638868,7.73907326 L4.30638868,7.21384819 C4.30638868,6.8581402 4.11880829,6.5302219 3.8172902,6.35653636 C3.11421113,5.95358591 2.67652357,5.19631695 2.67652357,4.37930017 C2.67652357,3.75542171 2.92107281,3.17322778 3.36570779,2.73970867 C3.81034277,2.30757905 4.39948413,2.08665104 5.01085723,2.10888279 C6.17524509,2.15751474 7.13815772,3.15794346 7.15899999,4.34039461 C7.17289483,5.17408521 6.73520727,5.94802797 6.01684388,6.35931533 C5.71671526,6.53161139 5.52913488,6.85952969 5.52913488,7.21523767 L5.52913488,7.74046275 C5.52913488,8.28791957 5.96682244,8.73255455 6.50594236,8.73255455 L7.99269058,8.73255455 C8.34839857,8.73255455 8.66659048,8.97154586 8.73189624,9.28973777 C8.77774922,9.5078868 8.72772779,9.72325687 8.58877936,9.89277396 Z"></path>
        </g>
    </g>
</svg>