<?xml version="1.0" encoding="UTF-8"?>
<svg width="14px" height="14px" viewBox="0 0 14 14" version="1.1" xmlns="http://www.w3.org/2000/svg" xmlns:xlink="http://www.w3.org/1999/xlink">
    <!-- Generator: Sketch 58 (84663) - https://sketch.com -->
    <title>ic_ep</title>
    <desc>Created with Sketch.</desc>
    <g id="ic_ep" stroke="none" stroke-width="1" fill="none" fill-rule="evenodd">
        <g fill="#2FA4FF" fill-rule="nonzero" id="编组-10" stroke-width="0.2">
            <g transform="translate(1.000000, 2.000000)">
                <g id="对号(2)" transform="translate(3.989282, 6.000000)" stroke="#00A4FF">
                    <path d="M2.30105357,4.15966071 C2.18448214,4.15966071 2.06448214,4.11508929 1.97533929,4.02594643 L0.134196429,2.17794643 C-0.0440892857,1.99623214 -0.0440892857,1.70480357 0.134196429,1.52308929 C0.315910714,1.341375 0.607339286,1.341375 0.785625,1.52308929 L2.30105357,3.045375 L5.19819643,0.137946429 C5.37648214,-0.0437678571 5.66791071,-0.0437678571 5.849625,0.137946429 C6.02791071,0.319660714 6.02791071,0.611089286 5.849625,0.792803571 L2.62676786,4.029375 C2.53419643,4.11508929 2.417625,4.15966071 2.30105357,4.15966071 L2.30105357,4.15966071 Z" id="路径"></path>
                </g>
                <path d="M5.24247332,-1.22568622e-13 C3.62638148,-1.22568622e-13 2.31635861,1.30883194 2.31635861,2.92254192 C2.31635861,3.89791349 2.79630335,4.75776486 3.52872523,5.28891959 C1.48151677,6.00228659 -9.76996262e-15,7.94826601 -9.76996262e-15,10.2288967 C-9.76996262e-15,10.4682736 0.256049924,10.6647771 0.496617759,10.6647771 C0.737185595,10.6647771 0.993235518,10.4682736 0.993235518,10.2288967 C0.993235518,7.82917302 2.84036776,5.98561357 5.24247332,5.98561357 C5.29368331,5.98561357 5.34012957,5.97251334 5.38538491,5.95703125 C6.93478468,5.88200267 8.16977896,4.48861471 8.16977896,2.92254192 C8.16977896,1.30883194 6.85856517,-1.22568622e-13 5.24247332,-1.22568622e-13 Z M5.24366425,4.80421113 C4.18969131,4.80421113 3.33817645,3.9538872 3.33817645,2.90110518 C3.33817645,1.84832317 4.18969131,0.997999238 5.24366425,0.997999238 C6.29644627,0.997999238 7.14796113,1.86856898 7.14915206,2.90110518 C7.14915206,3.9538872 6.29644627,4.80421113 5.24366425,4.80421113 Z" id="形状" stroke="#2FA4FF"></path>
            </g>
        </g>
    </g>
</svg>