<?xml version="1.0" encoding="UTF-8"?>
<svg width="14px" height="14px" viewBox="0 0 14 14" version="1.1" xmlns="http://www.w3.org/2000/svg" xmlns:xlink="http://www.w3.org/1999/xlink">
    <!-- Generator: Sketch 58 (84663) - https://sketch.com -->
    <title>ic_link</title>
    <desc>Created with Sketch.</desc>
    <g id="ic_link" stroke="none" stroke-width="1" fill="none" fill-rule="evenodd">
        <g fill="#FFC53D" fill-rule="nonzero" id="编组-11" stroke="#FFC300" stroke-width="0.1">
            <g transform="translate(1.000000, 1.000000)">
                <path d="M6.83528015,4.22048522 C6.75137967,4.13661823 6.66195502,4.06102075 6.56980735,3.99092512 L6.56963994,3.99108137 C6.47480272,3.89987112 6.34603926,3.84370312 6.20405127,3.84370312 C5.91265392,3.84370312 5.67645365,4.07991454 5.67645365,4.37130074 C5.67645365,4.5002316 5.72276743,4.61832615 5.79960366,4.70997162 L5.79958133,4.70997162 C5.83658758,4.75416691 5.88056378,4.79202128 5.92977327,4.8220398 C5.97952431,4.86307493 6.02836023,4.90347393 6.07401558,4.9491181 L6.11752821,4.99263074 C6.6643321,5.53877619 6.5010844,6.47968242 5.9542805,7.02651979 L3.6209143,9.35917175 C3.07413274,9.9053172 2.18515374,9.9053172 1.63831637,9.35917175 L1.5944801,9.315302 C1.04764273,8.76849812 1.04764273,7.87888301 1.5944801,7.33340715 L2.6253355,6.3028977 C2.75761434,6.19792725 2.84250806,6.03588483 2.84250806,5.85392191 C2.84250806,5.53744816 2.58595205,5.28088099 2.26946713,5.28088099 C2.15458064,5.28070818 2.04232046,5.3152381 1.94739108,5.37994783 C1.94708977,5.37933403 1.94677729,5.37876488 1.94647597,5.37812876 L1.93549459,5.38840707 C1.89491247,5.41752452 1.85828744,5.45179366 1.82654003,5.49035318 L0.755263314,6.49278419 C-0.251754438,7.50049386 -0.251754438,9.14858356 0.755263314,10.1548871 L0.798753621,10.1983774 C1.80576022,11.2046809 3.45314683,11.2046809 4.46016458,10.1983774 L6.79283887,7.86501119 C7.7984393,6.85807156 7.88371246,5.26959829 6.87811202,4.26328361 L6.83528015,4.22048522 L6.83528015,4.22048522 Z" id="路径"></path>
                <path d="M10.1977273,0.798745265 L10.1542147,0.755254946 C9.14724156,-0.251751649 7.49983262,-0.251751649 6.49282604,0.755254946 L4.16017407,3.08860999 C3.15316747,4.09562774 3.09770255,5.54979105 4.1047203,6.55744493 L4.14751869,6.59959604 C4.19325215,6.64530718 4.2407154,6.68840689 4.28916073,6.72976566 C4.32438082,6.76906028 4.36558482,6.80254701 4.41125054,6.82898874 L4.41229958,6.82983689 L4.41245581,6.82970298 C4.48783657,6.87311879 4.5733175,6.89592756 4.66030706,6.89583708 C4.93539973,6.89583708 5.15838662,6.67280529 5.15838662,6.39775725 C5.15848653,6.32272857 5.14156773,6.24865443 5.10890342,6.18110922 C5.04305974,6.03325109 4.91979813,5.94324613 4.8345473,5.85798413 L4.79173775,5.8158665 C4.24493387,5.26908493 4.45257582,4.47466416 4.99937971,3.92787143 L7.3334155,1.59517482 C7.87885787,1.04835977 8.76813819,1.04835977 9.31495324,1.59517482 L9.35847703,1.63798438 C9.90528092,2.18482175 9.90528092,3.07478282 9.35847703,3.6209171 L8.33098078,4.64909412 C8.19120246,4.75265843 8.10055022,4.91878538 8.10055021,5.10608275 C8.10055021,5.42000088 8.35504163,5.67450346 8.66897091,5.67450346 C8.77418475,5.67464276 8.87735317,5.64544101 8.96688568,5.5901789 L8.96880519,5.59343761 L8.98474159,5.57872879 C9.03377145,5.54586629 9.07740831,5.50559885 9.11409653,5.45936201 L10.1969573,4.46016738 C11.2047227,3.45318311 11.2047227,1.80574069 10.1977273,0.798745265 Z" id="路径"></path>
            </g>
        </g>
    </g>
</svg>
