<?xml version="1.0" encoding="UTF-8"?>
<svg width="14px" height="14px" viewBox="0 0 14 14" version="1.1" xmlns="http://www.w3.org/2000/svg" xmlns:xlink="http://www.w3.org/1999/xlink">
    <!-- Generator: Sketch 58 (84663) - https://sketch.com -->
    <title>ic_robot</title>
    <desc>Created with Sketch.</desc>
    <g id="ic_robot" stroke="none" stroke-width="1" fill="none" fill-rule="evenodd">
        <g fill="#5EADFC" fill-rule="nonzero" id="智能机器人">
            <g transform="translate(0.000000, 2.000000)">
                <path d="M11.1,2.7046875 C11.1,1.21992187 9.88476562,0.0046875 8.4,0.0046875 L3.6,0.0046875 C2.11523437,0.0046875 0.9,1.21992187 0.9,2.7046875 C0.403125,2.7046875 -1.42108547e-14,3.1078125 -1.42108547e-14,3.6046875 L-1.42108547e-14,6.0046875 C-1.42108547e-14,6.5015625 0.403125,6.9046875 0.9,6.9046875 C0.9,8.38945312 2.11523437,9.6046875 3.6,9.6046875 L8.4,9.6046875 C9.88476562,9.6046875 11.1,8.38945312 11.1,6.9046875 C11.596875,6.9046875 12,6.5015625 12,6.0046875 L12,3.6046875 C12,3.1078125 11.596875,2.7046875 11.1,2.7046875 Z M8.4,8.7046875 L3.6,8.7046875 C2.60742187,8.7046875 1.8,7.89726563 1.8,6.9046875 L1.8,2.7046875 C1.8,1.71210938 2.60742187,0.9046875 3.6,0.9046875 L8.4,0.9046875 C9.39257812,0.9046875 10.2,1.71210938 10.2,2.7046875 L10.2,6.9046875 C10.2,7.89726563 9.39257812,8.7046875 8.4,8.7046875 L8.4,8.7046875 Z" id="形状" stroke="#40AEFF" stroke-width="0.2"></path>
                <path d="M4.05,3.1546875 C3.8015625,3.1546875 3.6,3.35625 3.6,3.6046875 L3.6,5.1046875 C3.6,5.353125 3.8015625,5.5546875 4.05,5.5546875 C4.2984375,5.5546875 4.5,5.353125 4.5,5.1046875 L4.5,3.6046875 C4.5,3.35625 4.2984375,3.1546875 4.05,3.1546875 L4.05,3.1546875 Z M7.95,3.1546875 C7.7015625,3.1546875 7.5,3.35625 7.5,3.6046875 L7.5,5.1046875 C7.5,5.353125 7.7015625,5.5546875 7.95,5.5546875 C8.1984375,5.5546875 8.4,5.353125 8.4,5.1046875 L8.4,3.6046875 C8.4,3.35625 8.1984375,3.1546875 7.95,3.1546875 L7.95,3.1546875 Z" id="形状"></path>
            </g>
        </g>
    </g>
</svg>