<?xml version="1.0" standalone="no"?><!DOCTYPE svg PUBLIC "-//W3C//DTD SVG 1.1//EN" "http://www.w3.org/Graphics/SVG/1.1/DTD/svg11.dtd"><svg t="1594178780335" class="icon" viewBox="0 0 1024 1024" version="1.1" xmlns="http://www.w3.org/2000/svg" p-id="6610" width="10" height="10" xmlns:xlink="http://www.w3.org/1999/xlink"><defs><style type="text/css"></style></defs><path d="M512 972.8a460.8 460.8 0 1 1 460.8-460.8 25.6 25.6 0 1 0 51.2 0 512 512 0 1 0-512 512 25.6 25.6 0 1 0 0-51.2z" fill="#17abe3" p-id="6611"></path><path d="M768 512a256 256 0 1 0 256 256 256 256 0 0 0-256-256z m0 460.8a204.8 204.8 0 0 1-25.6-407.808V768a25.6 25.6 0 0 0 25.6 25.6h128a25.6 25.6 0 0 0 0-51.2h-102.4v-177.408A204.8 204.8 0 0 1 768 972.8zM321.792 251.392L122.624 450.56A25.6 25.6 0 0 0 158.976 486.4l162.816-162.816 217.344 217.344 271.36-271.36a25.6 25.6 0 1 0-36.096-36.096l-235.264 235.264L358.4 287.744z" fill="#17abe3" p-id="6612"></path></svg>
