<?xml version="1.0" standalone="no"?><!DOCTYPE svg PUBLIC "-//W3C//DTD SVG 1.1//EN" "http://www.w3.org/Graphics/SVG/1.1/DTD/svg11.dtd"><svg t="1653450341834" class="icon" viewBox="0 0 1024 1024" version="1.1" xmlns="http://www.w3.org/2000/svg" p-id="3969" xmlns:xlink="http://www.w3.org/1999/xlink" width="200" height="200"><defs><style type="text/css">@font-face { font-family: feedback-iconfont; src: url("//at.alicdn.com/t/font_1031158_u69w8yhxdu.woff2?t=1630033759944") format("woff2"), url("//at.alicdn.com/t/font_1031158_u69w8yhxdu.woff?t=1630033759944") format("woff"), url("//at.alicdn.com/t/font_1031158_u69w8yhxdu.ttf?t=1630033759944") format("truetype"); }
</style></defs><path d="M135.6130109 658.99136853l64.58711645-17.81713557c37.86141307 140.3099427 164.80850413 238.3041884 311.79987265 238.30418836 42.315697 0 84.63139403-8.90856777 124.71994906-24.49856142 4.4542839-2.22714197 6.68142585-2.22714197 11.13570976-4.45428387l28.95284531 60.13283255-13.36285169 6.68142586c-46.76998087 20.04427751-97.99424569 28.95284533-149.21851047 28.9528453-178.17135581 0-331.84415016-118.03852321-378.61413107-287.30131121z m619.14546139 202.66991724L712.44277526 810.43702096c75.72282621-60.13283258 122.49280712-153.67279436 122.49280711-253.89418202 0-93.53996178-40.08855508-180.39849777-106.90281348-240.53133034-8.90856777-8.90856777-20.04427751-15.58999364-28.95284531-22.27141947l37.8614131-55.67854867c13.3628517 8.90856777 24.49856142 17.81713559 35.63427117 28.95284533 82.40425205 73.49568432 129.17423296 178.17135581 129.17423295 291.75559508 0 118.03852321-55.67854869 229.3956206-146.99136851 302.8913049zM253.6515341 264.78724382l-20.04427752-53.45140673c42.315697-15.58999364 86.85853594-22.27141946 133.62851684-22.27141946v6.68142585c46.76998087-17.81713559 95.76710375-28.95284533 146.99136855-28.95284535v66.81425845c-62.35997453 0-122.49280712 17.81713559-173.71707191 51.22426477-80.1771101 51.22426479-133.62851685 133.62851685-146.99136855 227.16847865-2.22714197 11.13570974-2.22714197 20.04427751-2.22714192 31.17998726l-66.81425847-2.22714193c0-13.3628517 2.22714197-24.49856142 4.45428392-37.8614131 8.90856777-93.53996178 55.67854869-175.94421386 124.71994906-238.30418841z m630.28117114 383.068415l-57.90569065-33.40712924c20.04427751-33.40712919 31.17998726-69.04140038 37.86141311-104.67567155l66.81425845 11.13570974c-8.90856777 44.54283894-24.49856142 86.85853594-46.76998091 126.94709105z m-608.00975169 218.25991082l57.90569064-33.40712923c20.04427751 33.40712919 42.315697 62.35997453 71.26854232 84.63139403l-42.315697 51.22426482c-35.63427114-26.72570334-64.58711649-62.35997453-86.85853596-102.44852962z" fill="#A8C4F2" p-id="3970"></path><path d="M512 200.20012735m-133.62851685 0a133.62851685 133.62851685 0 1 0 267.2570337 0 133.62851685 133.62851685 0 1 0-267.2570337 0Z" fill="#FFFFFF" p-id="3971"></path><path d="M222.47154682 756.98561421m-133.62851686 0a133.62851685 133.62851685 0 1 0 267.25703371 0 133.62851685 133.62851685 0 1 0-267.25703371 0Z" fill="#FFFFFF" p-id="3972"></path><path d="M846.07129213 756.98561421m-133.62851687 0a133.62851685 133.62851685 0 1 0 267.25703372 0 133.62851685 133.62851685 0 1 0-267.25703372 0Z" fill="#FFFFFF" p-id="3973"></path><path d="M512 367.23577342c-91.31281983 0-167.03564605-75.72282621-167.03564605-167.03564607S420.68718017 33.16448127 512 33.16448127s167.03564605 75.72282621 167.03564605 167.03564608-75.72282621 167.03564605-167.03564605 167.03564607z m0-66.81425841c55.67854869 0 100.22138763-44.54283894 100.22138763-100.22138766s-44.54283894-100.22138763-100.22138763-100.22138761-100.22138763 44.54283894-100.22138763 100.22138761 44.54283894 100.22138763 100.22138763 100.22138766z m-289.52845318 623.59974525C131.15872702 924.02126026 55.43590074 848.29843408 55.43590074 756.98561421s75.72282621-167.03564605 167.03564608-167.03564606 167.03564605 75.72282621 167.03564606 167.03564606-75.72282621 167.03564605-167.03564606 167.03564605z m0-66.81425839c55.67854869 0 100.22138763-44.54283894 100.22138763-100.22138766s-44.54283894-100.22138763-100.22138763-100.22138763-100.22138763 44.54283894-100.22138762 100.22138763 44.54283894 100.22138763 100.22138762 100.22138766z m623.59974531 66.81425839c-91.31281983 0-167.03564605-75.72282621-167.03564608-167.03564605s75.72282621-167.03564605 167.03564608-167.03564606 167.03564605 75.72282621 167.03564604 167.03564606-75.72282621 167.03564605-167.03564604 167.03564605z m0-66.81425839c55.67854869 0 100.22138763-44.54283894 100.22138761-100.22138766s-44.54283894-100.22138763-100.22138761-100.22138763-100.22138763 44.54283894-100.22138763 100.22138763 44.54283894 100.22138763 100.22138763 100.22138766z" fill="#1B49BE" p-id="3974"></path></svg>