<?xml version="1.0" encoding="UTF-8"?>
<svg width="12px" height="12px" viewBox="0 0 12 12" version="1.1" xmlns="http://www.w3.org/2000/svg" xmlns:xlink="http://www.w3.org/1999/xlink">
    <!-- Generator: Sketch 58 (84663) - https://sketch.com -->
    <title>ic_redprompt</title>
    <desc>Created with Sketch.</desc>
    <g id="ic_redprompt" stroke="none" stroke-width="1" fill="none" fill-rule="evenodd">
        <g>
            <circle id="椭圆形" fill="#EA4343" cx="6" cy="6" r="6"></circle>
            <g id="感叹号" transform="translate(5.538462, 2.769231)" fill="#FFFFFF" fill-rule="nonzero">
                <path d="M-4.19664303e-14,6.35897436 C-4.19664303e-14,6.62331578 0.21429106,6.83760684 0.478632479,6.83760684 C0.742973897,6.83760684 0.957264957,6.62331578 0.957264957,6.35897436 C0.957264957,6.09463294 0.742973897,5.88034188 0.478632479,5.88034188 C0.21429106,5.88034188 -4.19664303e-14,6.09463294 -4.19664303e-14,6.35897436 Z" id="路径"></path>
                <path d="M0.477368072,-1.51434421e-13 C0.208848535,-1.51434421e-13 -4.19664303e-14,0.260825269 -4.19664303e-14,0.554253693 L-4.19664303e-14,4.36882323 C-4.19664303e-14,4.66225165 0.208848528,4.92307692 0.477368072,4.92307692 C0.745887609,4.92307692 0.954736144,4.66225165 0.954736144,4.36882323 L0.954736144,0.554253693 C0.984571645,0.260825269 0.745887609,-1.51434421e-13 0.477368072,-1.51434421e-13 Z" id="路径"></path>
            </g>
        </g>
    </g>
</svg>