<svg xmlns="http://www.w3.org/2000/svg" viewBox="0 0 14 14" class="design-iconfont">
  <path d="M6.98685591,3.67232816 C2.93085189,3.67232816 1.30842789,7.7283182 1.30842789,7.7283182 C1.30842789,7.7283182 2.93085189,11.7844202 6.98685591,11.7844202 C11.0428739,11.7844202 12.6652979,7.7283182 12.6652979,7.7283182 C12.6652979,7.7283182 11.0428739,3.67232816 6.98685591,3.67232816 L6.98685591,3.67232816 Z M6.98685591,10.1619542 C5.64330484,10.1619542 4.55327588,9.07269471 4.55327588,7.7283182 C4.55327588,6.38401163 5.64330484,5.29475216 6.98685591,5.29475216 C8.33042097,5.29475216 9.42049191,6.38401165 9.42049191,7.7283182 C9.42049191,9.07269471 8.33043497,10.1619542 6.98685591,10.1619542 L6.98685591,10.1619542 Z M8.2036809,7.7283182 C8.2036809,8.40015669 7.65861046,8.9451432 6.9868559,8.9451432 C6.31511534,8.9451432 5.7700449,8.40015669 5.7700449,7.7283182 C5.7700449,7.05656365 6.31511534,6.51156316 6.9868559,6.51156316 C7.65866642,6.5115072 8.2036809,7.05656365 8.2036809,7.7283182 L8.2036809,7.7283182 Z" fill="#BBB" fill-rule="nonzero"/>
</svg>
