<?xml version="1.0" encoding="UTF-8"?>
<svg xmlns="http://www.w3.org/2000/svg" xmlns:xlink="http://www.w3.org/1999/xlink" width="14px" height="14px" viewBox="0 0 14 14" version="1.1">
  <title>提示</title>
  <g id="审批历史" stroke="none" stroke-width="1" fill="none" fill-rule="evenodd">
    <g id="历史审批" transform="translate(-381.000000, -705.000000)" fill-rule="nonzero">
      <g id="编组" transform="translate(220.000000, 450.000000)">
        <g id="编组-5" transform="translate(153.000000, 215.000000)">
          <g id="提示" transform="translate(8.000000, 40.000000)">
            <rect id="矩形" fill="#000000" opacity="0" x="0" y="0" width="14" height="14"></rect>
            <path d="M6.99234375,0.313769531 C3.29546875,0.313769531 0.29859375,3.30626953 0.29859375,6.9978125 C0.29859375,9.38574219 1.57445312,11.5922461 3.64546875,12.7863477 C5.71662109,13.9803125 8.26820312,13.9803125 10.3392188,12.7863477 C12.4103711,11.5923828 13.6860937,9.38587891 13.6860937,6.9978125 C13.6862305,3.30640625 10.6892188,0.313769531 6.99234375,0.313769531 Z M6.99234375,10.7112305 C6.58164062,10.7112305 6.24859375,10.3787305 6.24859375,9.96857422 C6.24859375,9.70333984 6.39037109,9.45806641 6.62046875,9.32544922 C6.85056641,9.19283203 7.13412109,9.19283203 7.36421875,9.32544922 C7.59431641,9.45806641 7.73609375,9.70333984 7.73609375,9.96857422 C7.73609375,10.3785937 7.40318359,10.7112305 6.99234375,10.7112305 L6.99234375,10.7112305 Z M7.73609375,7.74046875 C7.73609375,8.18603516 7.43859375,8.483125 6.99234375,8.483125 C6.54609375,8.483125 6.24859375,8.18603516 6.24859375,7.74046875 L6.24859375,4.0271875 C6.24859375,3.58162109 6.54609375,3.28453125 6.99234375,3.28453125 C7.43859375,3.28453125 7.73609375,3.58162109 7.73609375,4.0271875 L7.73609375,7.74046875 Z" id="形状" fill="#FF5454"></path>
          </g>
        </g>
      </g>
    </g>
  </g>
</svg>
