<svg xmlns="http://www.w3.org/2000/svg" viewBox="0 0 14 14" class="design-iconfont">
  <path d="M12.0121094,3.58203125 L12.0121094,4.03730469 C12.0121094,4.10292969 11.9916016,4.15898437 11.9478516,4.2 C11.9041016,4.24375 11.8507812,4.26425781 11.7851562,4.26425781 L11.1015625,4.26425781 L11.1015625,11.0154297 C11.1015625,11.4091797 10.9894531,11.7496094 10.7679687,12.0367188 C10.5451172,12.3238281 10.2771484,12.46875 9.9640625,12.46875 L4.0359375,12.46875 C3.72285156,12.46875 3.45488281,12.3292969 3.23203125,12.0517578 C3.00917969,11.7742188 2.8984375,11.4378906 2.8984375,11.0441406 L2.8984375,4.26699219 L2.21484375,4.26699219 C2.14921875,4.26699219 2.09316406,4.24648437 2.05214844,4.20273437 C2.00839844,4.15898437 1.98789062,4.10566406 1.98789062,4.04003906 L1.98789062,3.58476562 C1.98789062,3.51914062 2.00839844,3.46308594 2.05214844,3.42207031 C2.09589844,3.37832031 2.14921875,3.3578125 2.21484375,3.3578125 L4.41601562,3.3578125 L4.91503906,2.16835938 C4.9875,1.99335937 5.11464844,1.84296875 5.30058594,1.71855469 C5.48652344,1.59550781 5.67382812,1.53261719 5.86386719,1.53261719 L8.14296875,1.53261719 C8.33300781,1.53261719 8.5203125,1.59414063 8.70625,1.71855469 C8.8921875,1.84160156 9.01933594,1.990625 9.09179688,2.16835938 L9.59082031,3.3578125 L11.790625,3.3578125 C11.85625,3.3578125 11.9123047,3.37832031 11.9533203,3.42207031 C11.9916016,3.46035156 12.0121094,3.51640625 12.0121094,3.58203125 Z M5.63144531,10.4193359 L5.63144531,5.40449219 C5.63144531,5.33886719 5.6109375,5.2828125 5.5671875,5.24179688 C5.5234375,5.19804688 5.47011719,5.17753906 5.40449219,5.17753906 L4.94921875,5.17753906 C4.88359375,5.17753906 4.82753906,5.19804688 4.78652344,5.24179688 C4.74277344,5.28554688 4.72226563,5.33886719 4.72226563,5.40449219 L4.72226563,10.4193359 C4.72226563,10.4849609 4.74277344,10.5410156 4.78652344,10.5820312 C4.83027344,10.6257812 4.88359375,10.6462891 4.94921875,10.6462891 L5.40449219,10.6462891 C5.47011719,10.6462891 5.52617187,10.6257812 5.5671875,10.5820312 C5.6109375,10.5396484 5.63144531,10.4849609 5.63144531,10.4193359 Z M5.40449219,3.35371094 L8.59550781,3.35371094 L8.25371094,2.52109375 C8.22089844,2.47734375 8.17988281,2.45273437 8.13203125,2.44316406 L5.87480469,2.44316406 C5.82695312,2.45273437 5.7859375,2.47871094 5.753125,2.52109375 L5.40449219,3.35371094 L5.40449219,3.35371094 Z M7.45527344,10.4193359 L7.45527344,5.40449219 C7.45527344,5.33886719 7.43476562,5.2828125 7.39101562,5.24179688 C7.34726562,5.19804688 7.29394531,5.17753906 7.22832031,5.17753906 L6.77304687,5.17753906 C6.70742187,5.17753906 6.65136719,5.19804688 6.61035156,5.24179688 C6.56660156,5.28554688 6.54609375,5.33886719 6.54609375,5.40449219 L6.54609375,10.4193359 C6.54609375,10.4849609 6.56660156,10.5410156 6.61035156,10.5820312 C6.65410156,10.6257812 6.70742187,10.6462891 6.77304687,10.6462891 L7.22832031,10.6462891 C7.29394531,10.6462891 7.35,10.6257812 7.39101562,10.5820312 C7.43339844,10.5396484 7.45527344,10.4849609 7.45527344,10.4193359 Z M9.27773437,10.4193359 L9.27773437,5.40449219 C9.27773437,5.33886719 9.25722656,5.2828125 9.21347656,5.24179688 C9.16972656,5.19804688 9.11640625,5.17753906 9.05078125,5.17753906 L8.59550781,5.17753906 C8.52988281,5.17753906 8.47382812,5.19804688 8.4328125,5.24179688 C8.3890625,5.28554688 8.36855469,5.33886719 8.36855469,5.40449219 L8.36855469,10.4193359 C8.36855469,10.4849609 8.3890625,10.5410156 8.4328125,10.5820312 C8.4765625,10.6257812 8.52988281,10.6462891 8.59550781,10.6462891 L9.05078125,10.6462891 C9.11640625,10.6462891 9.17246094,10.6257812 9.21347656,10.5820312 C9.25722656,10.5396484 9.27773437,10.4849609 9.27773437,10.4193359 L9.27773437,10.4193359 Z" fill="#BBB" fill-rule="nonzero"/>
</svg>
